<?xml version="1.0" encoding="UTF-8" standalone="no"?>
<!DOCTYPE svg PUBLIC "-//W3C//DTD SVG 1.1//EN"
 "http://www.w3.org/Graphics/SVG/1.1/DTD/svg11.dtd">
<!-- Generated by graphviz version 2.48.0 (0)
 -->
<!-- Title: snakemake_dag Pages: 1 -->
<svg width="302pt" height="188pt"
 viewBox="0.00 0.00 302.00 188.00" xmlns="http://www.w3.org/2000/svg" xmlns:xlink="http://www.w3.org/1999/xlink">
<g id="graph0" class="graph" transform="scale(1 1) rotate(0) translate(4 184)">
<title>snakemake_dag</title>
<polygon fill="white" stroke="transparent" points="-4,4 -4,-184 298,-184 298,4 -4,4"/>
<!-- 0 -->
<g id="node1" class="node">
<title>0</title>
<path fill="none" stroke="#56d8a9" stroke-width="2" stroke-dasharray="5,2" d="M74,-36C74,-36 12,-36 12,-36 6,-36 0,-30 0,-24 0,-24 0,-12 0,-12 0,-6 6,0 12,0 12,0 74,0 74,0 80,0 86,-6 86,-12 86,-12 86,-24 86,-24 86,-30 80,-36 74,-36"/>
<text text-anchor="middle" x="43" y="-15.5" font-family="sans" font-size="10.00">samtools_index</text>
</g>
<!-- 1 -->
<g id="node2" class="node">
<title>1</title>
<path fill="none" stroke="#d85656" stroke-width="2" stroke-dasharray="5,2" d="M70.5,-108C70.5,-108 15.5,-108 15.5,-108 9.5,-108 3.5,-102 3.5,-96 3.5,-96 3.5,-84 3.5,-84 3.5,-78 9.5,-72 15.5,-72 15.5,-72 70.5,-72 70.5,-72 76.5,-72 82.5,-78 82.5,-84 82.5,-84 82.5,-96 82.5,-96 82.5,-102 76.5,-108 70.5,-108"/>
<text text-anchor="middle" x="43" y="-87.5" font-family="sans" font-size="10.00">samtools_sort</text>
</g>
<!-- 1&#45;&gt;0 -->
<g id="edge1" class="edge">
<title>1&#45;&gt;0</title>
<path fill="none" stroke="grey" stroke-width="2" d="M43,-71.7C43,-63.98 43,-54.71 43,-46.11"/>
<polygon fill="grey" stroke="grey" stroke-width="2" points="46.5,-46.1 43,-36.1 39.5,-46.1 46.5,-46.1"/>
</g>
<!-- 2 -->
<g id="node3" class="node">
<title>2</title>
<path fill="none" stroke="#afd856" stroke-width="2" stroke-dasharray="5,2" d="M61.5,-180C61.5,-180 24.5,-180 24.5,-180 18.5,-180 12.5,-174 12.5,-168 12.5,-168 12.5,-156 12.5,-156 12.5,-150 18.5,-144 24.5,-144 24.5,-144 61.5,-144 61.5,-144 67.5,-144 73.5,-150 73.5,-156 73.5,-156 73.5,-168 73.5,-168 73.5,-174 67.5,-180 61.5,-180"/>
<text text-anchor="middle" x="43" y="-165" font-family="sans" font-size="10.00">bwa_map</text>
<text text-anchor="middle" x="43" y="-154" font-family="sans" font-size="10.00">sample: B</text>
</g>
<!-- 2&#45;&gt;1 -->
<g id="edge2" class="edge">
<title>2&#45;&gt;1</title>
<path fill="none" stroke="grey" stroke-width="2" d="M43,-143.7C43,-135.98 43,-126.71 43,-118.11"/>
<polygon fill="grey" stroke="grey" stroke-width="2" points="46.5,-118.1 43,-108.1 39.5,-118.1 46.5,-118.1"/>
</g>
<!-- 3 -->
<g id="node4" class="node">
<title>3</title>
<path fill="none" stroke="#56d8a9" stroke-width="2" stroke-dasharray="5,2" d="M178,-36C178,-36 116,-36 116,-36 110,-36 104,-30 104,-24 104,-24 104,-12 104,-12 104,-6 110,0 116,0 116,0 178,0 178,0 184,0 190,-6 190,-12 190,-12 190,-24 190,-24 190,-30 184,-36 178,-36"/>
<text text-anchor="middle" x="147" y="-15.5" font-family="sans" font-size="10.00">samtools_index</text>
</g>
<!-- 4 -->
<g id="node5" class="node">
<title>4</title>
<path fill="none" stroke="#d85656" stroke-width="2" stroke-dasharray="5,2" d="M174.5,-108C174.5,-108 119.5,-108 119.5,-108 113.5,-108 107.5,-102 107.5,-96 107.5,-96 107.5,-84 107.5,-84 107.5,-78 113.5,-72 119.5,-72 119.5,-72 174.5,-72 174.5,-72 180.5,-72 186.5,-78 186.5,-84 186.5,-84 186.5,-96 186.5,-96 186.5,-102 180.5,-108 174.5,-108"/>
<text text-anchor="middle" x="147" y="-87.5" font-family="sans" font-size="10.00">samtools_sort</text>
</g>
<!-- 4&#45;&gt;3 -->
<g id="edge3" class="edge">
<title>4&#45;&gt;3</title>
<path fill="none" stroke="grey" stroke-width="2" d="M147,-71.7C147,-63.98 147,-54.71 147,-46.11"/>
<polygon fill="grey" stroke="grey" stroke-width="2" points="150.5,-46.1 147,-36.1 143.5,-46.1 150.5,-46.1"/>
</g>
<!-- 5 -->
<g id="node6" class="node">
<title>5</title>
<path fill="none" stroke="#afd856" stroke-width="2" stroke-dasharray="5,2" d="M165,-180C165,-180 129,-180 129,-180 123,-180 117,-174 117,-168 117,-168 117,-156 117,-156 117,-150 123,-144 129,-144 129,-144 165,-144 165,-144 171,-144 177,-150 177,-156 177,-156 177,-168 177,-168 177,-174 171,-180 165,-180"/>
<text text-anchor="middle" x="147" y="-165" font-family="sans" font-size="10.00">bwa_map</text>
<text text-anchor="middle" x="147" y="-154" font-family="sans" font-size="10.00">sample: A</text>
</g>
<!-- 5&#45;&gt;4 -->
<g id="edge4" class="edge">
<title>5&#45;&gt;4</title>
<path fill="none" stroke="grey" stroke-width="2" d="M147,-143.7C147,-135.98 147,-126.71 147,-118.11"/>
<polygon fill="grey" stroke="grey" stroke-width="2" points="150.5,-118.1 147,-108.1 143.5,-118.1 150.5,-118.1"/>
</g>
<!-- 6 -->
<g id="node7" class="node">
<title>6</title>
<path fill="none" stroke="#56d8a9" stroke-width="2" stroke-dasharray="5,2" d="M282,-36C282,-36 220,-36 220,-36 214,-36 208,-30 208,-24 208,-24 208,-12 208,-12 208,-6 214,0 220,0 220,0 282,0 282,0 288,0 294,-6 294,-12 294,-12 294,-24 294,-24 294,-30 288,-36 282,-36"/>
<text text-anchor="middle" x="251" y="-15.5" font-family="sans" font-size="10.00">samtools_index</text>
</g>
<!-- 7 -->
<g id="node8" class="node">
<title>7</title>
<path fill="none" stroke="#d85656" stroke-width="2" stroke-dasharray="5,2" d="M278.5,-108C278.5,-108 223.5,-108 223.5,-108 217.5,-108 211.5,-102 211.5,-96 211.5,-96 211.5,-84 211.5,-84 211.5,-78 217.5,-72 223.5,-72 223.5,-72 278.5,-72 278.5,-72 284.5,-72 290.5,-78 290.5,-84 290.5,-84 290.5,-96 290.5,-96 290.5,-102 284.5,-108 278.5,-108"/>
<text text-anchor="middle" x="251" y="-87.5" font-family="sans" font-size="10.00">samtools_sort</text>
</g>
<!-- 7&#45;&gt;6 -->
<g id="edge5" class="edge">
<title>7&#45;&gt;6</title>
<path fill="none" stroke="grey" stroke-width="2" d="M251,-71.7C251,-63.98 251,-54.71 251,-46.11"/>
<polygon fill="grey" stroke="grey" stroke-width="2" points="254.5,-46.1 251,-36.1 247.5,-46.1 254.5,-46.1"/>
</g>
<!-- 8 -->
<g id="node9" class="node">
<title>8</title>
<path fill="none" stroke="#afd856" stroke-width="2" stroke-dasharray="5,2" d="M270,-180C270,-180 232,-180 232,-180 226,-180 220,-174 220,-168 220,-168 220,-156 220,-156 220,-150 226,-144 232,-144 232,-144 270,-144 270,-144 276,-144 282,-150 282,-156 282,-156 282,-168 282,-168 282,-174 276,-180 270,-180"/>
<text text-anchor="middle" x="251" y="-165" font-family="sans" font-size="10.00">bwa_map</text>
<text text-anchor="middle" x="251" y="-154" font-family="sans" font-size="10.00">sample: C</text>
</g>
<!-- 8&#45;&gt;7 -->
<g id="edge6" class="edge">
<title>8&#45;&gt;7</title>
<path fill="none" stroke="grey" stroke-width="2" d="M251,-143.7C251,-135.98 251,-126.71 251,-118.11"/>
<polygon fill="grey" stroke="grey" stroke-width="2" points="254.5,-118.1 251,-108.1 247.5,-118.1 254.5,-118.1"/>
</g>
</g>
</svg>
